<mxfile host="app.diagrams.net" modified="2023-07-11T07:18:59.190Z" agent="Mozilla/5.0 (Windows NT 10.0; Win64; x64) AppleWebKit/537.36 (KHTML, like Gecko) Chrome/114.0.0.0 Safari/537.36" version="21.5.2" etag="bikuXA0lMgwfVWq0iuj0" type="github">
  <diagram name="第 1 页" id="8A4oW9DnUWbjnW0J76oK">
    <mxGraphModel>
      <root>
        <mxCell id="0" />
        <mxCell id="1" parent="0" />
      </root>
    </mxGraphModel>
  </diagram>
</mxfile>
